<?xml version="1.0" standalone="no"?>
<!DOCTYPE svg PUBLIC "-//W3C//DTD SVG 20010904//EN"
 "http://www.w3.org/TR/2001/REC-SVG-20010904/DTD/svg10.dtd">
<svg version="1.0" xmlns="http://www.w3.org/2000/svg"
 width="1638.000000pt" height="1638.000000pt" viewBox="0 0 1638.000000 1638.000000"
 preserveAspectRatio="xMidYMid meet">

<g transform="translate(0.000000,1638.000000) scale(0.100000,-0.100000)"
fill="#000000" stroke="none">
<path d="M7655 15474 c-191 -14 -510 -52 -660 -79 -44 -8 -96 -17 -115 -20
-322 -50 -861 -199 -1266 -350 -452 -169 -981 -433 -1384 -692 -548 -351
-1065 -789 -1520 -1288 -786 -862 -1368 -1926 -1663 -3035 -88 -330 -124 -498
-177 -830 -19 -122 -24 -165 -56 -475 -18 -174 -27 -863 -14 -1075 60 -989
322 -1974 757 -2844 261 -523 543 -959 902 -1401 268 -330 695 -760 1014
-1024 811 -670 1703 -1142 2702 -1430 141 -40 394 -105 450 -115 17 -2 64 -12
105 -21 222 -48 606 -103 900 -127 205 -17 952 -17 1165 0 313 25 691 80 975
143 74 17 162 36 195 43 56 13 107 26 290 78 321 90 684 225 1015 375 1556
708 2821 1926 3584 3451 448 894 698 1817 766 2827 14 197 13 817 0 992 -25
319 -69 667 -110 869 -139 680 -283 1129 -545 1699 -384 839 -857 1519 -1509
2170 -381 380 -753 683 -1195 972 -283 186 -418 263 -736 423 -878 441 -1802
696 -2780 765 -261 18 -826 18 -1090 -1z m760 -234 c326 -14 514 -27 633 -45
56 -8 130 -17 165 -20 218 -19 811 -153 1132 -256 190 -61 459 -157 528 -188
23 -11 76 -33 117 -49 237 -95 753 -359 950 -487 19 -12 69 -44 110 -70 169
-107 274 -180 434 -298 353 -263 633 -516 1011 -912 99 -104 313 -361 445
-534 108 -143 325 -463 411 -606 30 -49 59 -99 66 -110 7 -11 15 -27 19 -35 4
-8 39 -71 78 -140 62 -111 177 -343 263 -530 97 -209 301 -774 341 -945 6 -22
26 -101 46 -176 19 -75 38 -150 40 -165 3 -16 14 -67 25 -114 66 -279 123
-711 152 -1140 14 -204 5 -685 -16 -905 -9 -88 -18 -191 -21 -230 -2 -38 -13
-124 -23 -190 -11 -66 -22 -140 -26 -165 -40 -295 -190 -891 -306 -1210 -51
-142 -136 -364 -154 -405 -13 -27 -48 -106 -78 -175 -73 -166 -175 -369 -253
-507 -35 -62 -64 -115 -64 -117 0 -3 -23 -42 -51 -88 -29 -46 -64 -103 -79
-128 -42 -70 -207 -319 -249 -375 -167 -224 -256 -341 -261 -345 -4 -3 -40
-45 -80 -95 -192 -240 -621 -671 -899 -904 -261 -220 -746 -568 -867 -623 -13
-6 -24 -15 -24 -20 0 -4 -4 -8 -9 -8 -5 0 -55 -27 -111 -61 -136 -80 -594
-319 -613 -319 -3 0 -47 -20 -99 -44 -111 -52 -421 -176 -440 -176 -8 0 -18
-4 -24 -9 -12 -11 -353 -122 -479 -156 -347 -93 -723 -173 -880 -189 -22 -3
-105 -14 -185 -25 -80 -11 -185 -22 -235 -26 -49 -3 -148 -10 -220 -16 -313
-26 -880 -9 -1260 37 -71 9 -148 18 -170 20 -127 11 -677 125 -845 174 -36 11
-99 29 -140 40 -247 69 -550 178 -860 310 -185 79 -558 268 -747 380 -362 214
-643 410 -953 665 -80 66 -150 124 -156 130 -7 5 -63 57 -125 114 -135 124
-343 332 -454 454 -44 49 -98 107 -119 130 -22 23 -101 119 -175 213 -187 235
-190 239 -241 313 -25 37 -51 73 -58 81 -22 25 -177 263 -256 393 -113 187
-192 332 -308 567 -114 230 -138 284 -223 504 -31 77 -62 155 -69 171 -15 34
-142 428 -179 555 -73 248 -184 807 -202 1010 -3 30 -12 114 -20 185 -28 239
-32 338 -30 765 2 356 6 458 24 630 23 221 60 473 93 640 11 58 22 119 25 135
2 17 11 56 19 88 8 32 19 77 23 100 46 231 252 872 341 1062 5 11 36 83 69
160 79 186 266 554 375 740 92 156 291 463 355 550 130 174 228 303 247 325
12 14 59 70 105 125 97 117 401 446 485 525 298 278 421 385 653 565 249 195
627 440 936 608 514 279 989 468 1610 640 207 58 652 146 815 162 30 3 98 12
151 20 109 17 337 33 604 44 99 4 187 8 195 9 8 1 119 -3 245 -8z"/>
<path d="M8400 14742 c0 -2 -9 -95 -19 -205 -11 -111 -22 -248 -25 -304 l-5
-102 27 -5 c46 -9 392 -40 396 -35 2 2 6 29 7 59 l4 55 -145 13 c-80 8 -146
15 -147 16 -1 0 6 80 15 176 10 96 17 209 17 250 l0 75 -63 5 c-34 3 -62 3
-62 2z"/>
<path d="M7771 14723 l-43 -4 6 -92 c3 -51 8 -189 12 -308 l6 -217 152 5 c194
6 247 16 293 56 46 41 60 78 57 152 -3 57 -5 62 -48 101 -40 37 -44 43 -30 55
43 36 57 119 29 185 -25 60 -72 74 -245 72 -80 -1 -165 -3 -189 -5z m294 -128
c14 -13 25 -34 25 -45 0 -37 -44 -70 -92 -70 -24 0 -60 -3 -80 -6 l-38 -7 0
77 0 76 80 0 c73 0 83 -3 105 -25z m21 -230 c46 -30 43 -107 -6 -132 -14 -7
-61 -13 -107 -13 l-83 0 0 58 c0 31 -3 67 -6 79 -6 20 -2 22 52 26 81 6 122 1
150 -18z"/>
<path d="M7442 14688 c-6 -8 -7 -33 -2 -68 5 -30 11 -82 14 -115 3 -33 11
-104 18 -157 9 -73 9 -103 0 -122 -37 -81 -190 -87 -220 -9 -13 33 -29 141
-42 278 -6 55 -13 114 -16 132 l-6 33 -61 -6 c-34 -2 -65 -8 -69 -12 -4 -4 2
-68 13 -142 11 -74 22 -165 25 -202 9 -127 48 -197 128 -234 101 -47 262 -20
331 57 45 50 65 96 65 146 0 21 -11 114 -25 207 -13 93 -24 172 -23 175 5 46
-1 51 -61 51 -35 0 -63 -5 -69 -12z"/>
<path d="M8916 14683 c-3 -10 -8 -53 -11 -95 -3 -42 -14 -137 -24 -210 -10
-73 -19 -140 -19 -148 0 -8 -3 -45 -7 -81 l-7 -66 62 -7 c34 -4 64 -6 65 -4 4
4 40 265 60 438 9 74 18 143 21 152 5 19 -6 23 -83 33 -44 6 -52 4 -57 -12z"/>
<path d="M9329 14631 c-108 -34 -184 -132 -210 -273 -21 -117 10 -218 91 -291
58 -52 111 -70 208 -69 105 1 171 42 221 137 24 45 27 71 9 72 -7 0 -36 4 -63
8 l-50 7 -18 -36 c-20 -44 -70 -76 -116 -76 -48 0 -110 38 -132 82 -48 94 -4
265 80 307 52 27 86 26 141 -1 37 -19 47 -31 58 -64 12 -38 18 -43 57 -53 91
-23 99 -13 70 86 -36 121 -212 204 -346 164z"/>
<path d="M6618 14544 c-51 -13 -110 -26 -131 -29 l-39 -6 7 -42 c4 -23 16 -76
27 -117 11 -41 21 -86 23 -100 2 -14 12 -63 24 -110 11 -47 28 -120 37 -162
l17 -78 31 6 c17 2 47 9 68 15 l36 9 -14 58 c-8 31 -19 77 -24 101 -6 24 -7
47 -3 51 4 4 48 17 97 30 104 26 149 52 172 100 55 115 3 261 -104 289 -57 16
-112 12 -224 -15z m196 -116 c45 -71 20 -127 -67 -152 -111 -32 -102 -34 -115
26 -28 130 -28 124 15 136 21 5 64 10 95 11 49 1 60 -2 72 -21z"/>
<path d="M10305 14350 c-73 -29 -117 -70 -157 -147 -64 -122 -71 -210 -26
-314 25 -59 67 -99 144 -138 106 -54 218 -38 298 42 29 29 66 85 66 100 0 2
-26 12 -59 22 l-59 17 -41 -41 c-22 -22 -52 -43 -67 -47 -36 -9 -97 11 -132
44 -81 76 -30 292 81 342 53 24 71 24 124 1 49 -23 75 -58 76 -104 1 -33 3
-35 63 -54 68 -23 74 -20 74 33 0 177 -214 312 -385 244z"/>
<path d="M5681 14254 c-137 -48 -200 -149 -189 -303 6 -81 53 -193 102 -239
105 -102 275 -109 384 -17 19 16 38 40 44 54 l9 26 20 -27 c20 -27 20 -27 57
-10 20 9 39 18 41 19 3 2 -51 149 -91 242 -10 24 -18 50 -18 57 0 19 -12 18
-68 -5 -26 -10 -74 -29 -107 -42 -33 -12 -64 -25 -68 -29 -5 -4 1 -28 12 -54
l21 -46 53 21 c72 29 72 29 75 -17 5 -71 -67 -134 -153 -134 -63 0 -106 33
-151 119 -24 44 -29 67 -29 121 0 58 4 70 29 101 61 73 160 79 211 12 8 -11
21 -9 67 9 32 13 58 29 58 36 0 7 -19 32 -42 55 -65 64 -171 84 -267 51z"/>
<path d="M10926 14086 c-85 -36 -129 -77 -178 -171 -30 -56 -32 -67 -33 -160
0 -78 4 -108 19 -137 45 -91 162 -160 269 -160 212 0 375 256 296 467 -11 30
-24 55 -29 55 -5 0 -12 9 -15 20 -3 11 -12 20 -19 20 -8 0 -20 7 -27 17 -22
25 -114 62 -172 68 -41 5 -64 1 -111 -19z m189 -131 c83 -48 94 -146 31 -261
-45 -82 -95 -116 -162 -111 -54 4 -87 23 -126 73 -30 38 -28 105 6 179 61 134
153 178 251 120z"/>
<path d="M5185 14021 c-27 -16 -50 -33 -52 -37 -1 -5 40 -81 91 -169 52 -88
90 -161 86 -163 -5 -2 -64 28 -132 66 -67 38 -155 86 -194 106 l-72 37 -52
-28 c-29 -15 -54 -33 -57 -39 -2 -5 33 -72 77 -147 44 -76 80 -139 80 -141 0
-5 138 -237 144 -243 7 -8 106 51 106 62 -1 6 -13 31 -28 57 -84 146 -152 271
-149 275 2 2 90 -44 195 -102 106 -58 197 -105 203 -105 6 0 36 14 66 31 l54
31 -27 46 c-15 26 -31 54 -35 62 -4 8 -37 65 -72 125 -35 61 -66 117 -70 125
-4 8 -21 38 -37 65 -17 28 -38 65 -47 83 -9 17 -19 32 -22 32 -3 -1 -28 -14
-56 -29z"/>
<path d="M11495 13798 c-43 -75 -61 -104 -174 -293 -56 -93 -103 -174 -104
-179 -2 -8 103 -70 108 -64 8 10 155 249 155 252 0 3 11 22 25 42 36 53 36 52
-36 -266 -10 -47 -19 -91 -19 -97 0 -16 79 -65 93 -57 21 13 230 186 272 226
22 21 43 38 47 38 4 0 -38 -75 -93 -166 -55 -92 -98 -173 -95 -180 5 -12 82
-58 98 -59 7 0 318 513 318 525 0 3 -34 25 -77 49 -84 47 -92 47 -150 -8 -69
-65 -254 -223 -258 -220 -2 2 8 49 21 104 13 55 26 114 29 130 3 17 12 60 21
97 9 38 14 74 11 82 -6 15 -135 96 -153 96 -5 0 -22 -23 -39 -52z"/>
<path d="M4602 13675 c-28 -20 -52 -37 -52 -39 0 -3 54 -85 121 -183 66 -98
144 -213 172 -255 56 -84 57 -84 119 -32 15 12 32 24 38 26 6 2 -16 44 -49 93
-33 50 -101 151 -150 225 -49 74 -94 140 -99 146 -5 5 -15 20 -21 32 -6 12
-15 22 -19 22 -4 0 -31 -16 -60 -35z"/>
<path d="M4365 13506 c-122 -39 -210 -126 -218 -218 -5 -49 20 -111 58 -148
51 -49 101 -50 245 -6 135 42 154 44 174 14 24 -34 19 -61 -16 -95 -76 -70
-132 -83 -179 -39 l-25 24 -52 -32 c-28 -17 -52 -36 -52 -42 0 -16 65 -73 97
-85 108 -41 284 46 346 171 30 60 28 113 -7 173 -52 89 -132 103 -282 51 -108
-38 -145 -42 -168 -18 -26 25 -19 59 19 92 51 46 102 52 147 20 19 -14 42 -4
94 37 l29 23 -35 36 c-31 33 -83 57 -120 55 -8 0 -33 -6 -55 -13z"/>
<path d="M7910 13480 c-102 -4 -237 -15 -300 -24 -63 -8 -137 -18 -165 -21
-262 -28 -700 -136 -1030 -254 -402 -142 -793 -333 -1110 -540 -22 -14 -47
-30 -56 -36 -72 -46 -357 -249 -369 -264 -3 -3 -50 -42 -104 -85 -243 -194
-623 -581 -806 -821 -30 -38 -57 -72 -60 -75 -9 -6 -141 -193 -207 -290 -272
-404 -500 -875 -646 -1335 -84 -263 -155 -547 -177 -700 -5 -38 -16 -104 -24
-145 -8 -41 -17 -102 -20 -135 -3 -33 -13 -130 -22 -215 -25 -220 -25 -701 -1
-945 10 -99 27 -236 38 -305 11 -69 25 -154 30 -190 19 -135 89 -417 161 -650
34 -110 130 -374 139 -384 5 -6 9 -16 9 -23 0 -7 9 -32 19 -56 11 -23 36 -80
57 -127 123 -282 325 -634 517 -905 79 -112 261 -349 289 -377 10 -10 65 -71
122 -136 361 -408 898 -838 1376 -1101 52 -28 102 -56 110 -61 8 -6 24 -14 36
-19 11 -5 76 -37 145 -71 324 -162 779 -321 1154 -404 343 -76 604 -110 952
-127 372 -17 837 11 1143 67 47 9 129 24 182 34 54 10 113 23 130 29 18 6 48
13 67 16 40 7 239 60 296 79 22 8 78 26 125 41 47 15 99 33 117 41 17 8 35 14
40 14 12 0 284 110 372 151 153 70 359 176 467 240 64 38 118 69 121 69 7 0
270 178 366 248 267 195 382 295 647 561 242 244 255 258 390 426 323 401 565
803 782 1305 59 135 186 506 225 655 54 205 64 246 83 340 77 378 105 671 105
1095 0 502 -44 871 -156 1315 -17 66 -37 143 -44 172 -21 85 -123 378 -187
538 -72 182 -252 550 -342 699 -36 59 -66 110 -66 111 0 8 -198 296 -276 402
-155 210 -273 344 -508 578 -254 254 -380 366 -565 504 -161 121 -441 308
-546 366 -22 12 -98 54 -169 93 -348 192 -828 378 -1211 471 -71 18 -155 38
-185 46 -30 8 -75 17 -100 20 -25 3 -73 13 -108 21 -34 7 -100 18 -145 24 -45
5 -134 16 -197 25 -195 26 -610 38 -910 25z m-510 -406 c0 -3 -55 -101 -122
-218 -66 -116 -132 -231 -146 -256 -20 -36 -146 -253 -192 -330 -5 -8 -48 -84
-97 -168 -88 -152 -108 -188 -193 -335 -63 -111 -177 -307 -195 -337 -8 -14
-32 -55 -52 -92 l-37 -68 -1045 0 c-993 0 -1043 1 -1029 18 8 9 48 58 90 107
184 220 540 550 808 749 103 77 321 224 385 261 22 13 96 56 165 95 138 80
356 188 495 244 50 20 99 41 110 46 43 19 151 59 180 66 17 4 35 10 40 14 9 7
58 23 315 100 41 12 95 26 120 30 25 5 72 16 105 25 33 8 76 18 95 21 19 3 62
11 95 18 67 16 105 19 105 10z m1755 -15 c331 -63 773 -195 998 -298 23 -11
83 -37 133 -59 159 -70 372 -182 544 -285 54 -32 364 -239 370 -246 3 -4 40
-32 83 -64 43 -31 104 -78 135 -104 190 -163 302 -266 417 -384 123 -126 305
-331 305 -343 0 -3 -467 -6 -1038 -6 l-1038 0 -89 152 c-50 84 -95 163 -102
175 -6 13 -37 65 -67 117 -31 52 -56 98 -56 101 0 4 -11 21 -25 39 -14 18 -25
36 -25 40 0 4 -23 46 -52 94 -28 48 -77 132 -108 187 -90 158 -281 486 -306
527 -13 21 -24 40 -24 44 0 3 -29 54 -63 113 -110 183 -130 221 -115 221 7 0
63 -9 123 -21z m-869 -936 c38 -65 74 -126 81 -138 7 -11 15 -27 19 -35 4 -8
44 -78 90 -155 45 -77 92 -158 104 -180 34 -62 133 -233 245 -425 56 -96 139
-240 185 -320 45 -80 107 -185 136 -235 28 -49 63 -110 76 -135 14 -25 56 -97
93 -160 38 -63 75 -130 84 -147 l15 -33 1209 0 1209 0 -25 -42 c-14 -24 -37
-65 -52 -93 -29 -51 -178 -308 -196 -335 -5 -8 -13 -24 -19 -35 -5 -11 -22
-41 -37 -67 -45 -76 -196 -336 -226 -392 -16 -28 -60 -104 -98 -168 -38 -65
-80 -137 -92 -160 -13 -24 -60 -105 -105 -182 -45 -76 -82 -140 -82 -142 0 -3
-11 -22 -25 -44 -47 -74 -245 -422 -245 -430 0 -5 28 -57 63 -117 86 -147 221
-380 245 -423 57 -102 283 -492 306 -528 14 -23 26 -43 26 -46 0 -2 37 -66 82
-142 45 -77 91 -157 103 -179 12 -22 56 -99 98 -170 41 -72 121 -209 176 -305
l102 -175 -1208 -3 -1208 -2 -31 -58 c-26 -48 -111 -196 -292 -507 -19 -33
-44 -78 -57 -100 -12 -22 -54 -96 -95 -165 -145 -249 -219 -378 -300 -520 -46
-80 -93 -161 -105 -180 -29 -47 -115 -198 -134 -235 -8 -16 -17 -32 -20 -35
-3 -3 -13 -19 -22 -35 -45 -84 -142 -245 -148 -245 -4 0 -18 21 -31 47 -14 26
-29 52 -33 58 -4 5 -40 66 -79 135 -39 69 -79 139 -89 155 -10 17 -30 51 -44
77 -14 26 -52 92 -85 147 -33 55 -60 105 -60 111 0 5 -4 10 -9 10 -5 0 -13 9
-16 20 -4 11 -39 76 -79 143 -40 67 -75 129 -79 137 -4 8 -11 22 -17 30 -18
27 -160 271 -160 275 0 4 -67 119 -101 175 -5 8 -17 31 -27 50 -10 19 -55 97
-100 172 -45 75 -82 139 -82 142 0 3 -20 39 -45 79 -25 41 -45 80 -45 86 0 7
39 11 124 11 l124 0 7 33 c9 39 66 220 72 227 2 2 7 0 11 -7 9 -14 164 -114
222 -143 132 -67 318 -125 510 -160 143 -25 390 -28 525 -5 50 9 115 20 146
25 90 16 275 83 384 139 202 104 406 275 533 449 73 98 170 294 206 412 34
113 56 258 63 410 14 332 -119 675 -339 874 -152 138 -366 236 -768 351 -139
40 -334 99 -413 126 -81 27 -284 79 -309 79 -21 0 -76 16 -238 66 -41 13 -81
24 -89 24 -7 0 -56 21 -107 46 -182 89 -249 207 -213 376 15 71 32 102 91 165
81 85 173 130 336 164 245 50 513 -9 782 -173 95 -57 111 -70 222 -181 113
-112 204 -228 322 -408 l69 -106 61 25 c34 14 79 32 101 42 22 9 84 34 137 56
68 27 98 44 98 55 0 9 -9 47 -21 84 -11 38 -22 75 -24 84 -2 9 -22 77 -44 151
-23 74 -56 187 -75 250 -19 63 -49 162 -66 219 -17 57 -43 143 -56 190 -14 47
-36 123 -50 169 l-26 82 -171 -2 -171 -3 -26 -80 c-14 -44 -28 -86 -31 -94 -4
-10 -18 -5 -59 21 -66 42 -234 127 -310 156 -408 157 -889 135 -1262 -57 -140
-72 -236 -142 -351 -254 -144 -142 -209 -237 -282 -412 -87 -211 -113 -451
-80 -745 6 -53 63 -251 76 -265 5 -5 9 -16 9 -25 1 -15 60 -121 111 -197 47
-68 147 -162 241 -224 172 -113 349 -183 653 -260 338 -84 507 -129 646 -170
36 -10 73 -19 82 -19 9 0 36 -6 59 -14 24 -7 90 -28 148 -46 223 -68 271 -91
348 -164 81 -76 106 -136 107 -256 0 -102 -19 -170 -69 -247 -88 -135 -252
-226 -476 -264 -90 -16 -272 -16 -355 -1 -33 6 -76 14 -95 17 -65 10 -218 66
-306 111 -236 120 -478 345 -666 619 -58 85 -181 296 -198 339 -11 30 -20 31
-58 13 -15 -8 -103 -40 -197 -72 -93 -32 -174 -62 -180 -66 -6 -6 -3 -29 8
-62 9 -28 37 -119 62 -202 25 -82 56 -184 70 -225 13 -41 38 -122 55 -180 17
-58 38 -123 45 -145 8 -22 26 -80 40 -130 15 -49 35 -115 46 -146 10 -31 19
-63 19 -71 0 -9 8 -37 19 -64 28 -76 81 -248 81 -267 0 -16 -76 -17 -1165 -17
l-1164 0 30 53 c17 28 35 57 39 62 4 6 21 35 37 65 16 30 66 118 111 194 45
76 82 140 82 142 0 1 34 60 75 129 41 70 75 130 75 134 0 4 7 16 15 26 9 11
51 83 95 160 43 77 86 149 95 160 8 10 15 23 15 27 0 8 29 58 126 220 19 31
34 61 34 67 0 6 5 11 10 11 6 0 10 4 10 9 0 4 28 57 63 117 35 60 69 118 75
129 6 11 47 82 91 157 45 76 81 140 81 143 0 3 11 23 25 45 l25 39 -42 73
c-22 40 -67 117 -99 171 -33 54 -59 99 -59 101 0 2 -30 55 -67 117 -36 63 -73
128 -82 144 -9 17 -19 32 -23 33 -5 2 -8 8 -8 13 0 6 -29 58 -63 117 -35 59
-75 127 -89 152 -14 25 -58 101 -98 170 -40 69 -85 149 -101 178 -16 28 -40
70 -54 92 -14 22 -38 64 -54 92 -28 53 -185 324 -307 531 l-63 107 1207 0
1208 0 30 53 c66 112 194 335 220 382 15 28 31 51 36 53 4 2 8 9 8 14 0 6 29
60 65 119 36 60 65 111 65 113 0 4 140 245 160 276 5 8 21 36 35 62 13 26 49
88 79 138 30 50 58 100 61 110 4 11 11 20 16 20 5 0 9 5 9 11 0 6 31 64 68
128 102 173 242 415 298 513 27 49 52 88 55 88 3 0 37 -53 75 -117z m-4797
-2275 c21 -34 111 -190 111 -193 0 -2 33 -59 73 -126 40 -68 76 -131 80 -139
4 -8 15 -28 26 -45 10 -16 44 -75 76 -130 90 -156 230 -398 242 -420 32 -56
160 -278 241 -417 51 -86 106 -182 123 -215 18 -32 36 -62 40 -67 15 -17 10
-34 -36 -112 -25 -41 -45 -77 -45 -79 0 -2 -34 -61 -76 -132 -42 -70 -86 -146
-99 -168 -85 -151 -376 -656 -435 -755 -18 -30 -45 -77 -60 -105 -15 -27 -57
-102 -95 -165 -37 -63 -76 -131 -87 -150 -56 -101 -93 -160 -98 -160 -9 0
-133 380 -169 520 -135 517 -195 1094 -161 1550 14 187 47 480 65 570 8 41 17
93 21 115 3 22 14 74 24 115 10 41 21 93 25 115 4 22 13 58 21 80 7 23 15 50
17 61 9 52 148 474 156 474 3 0 13 -10 20 -22z m9492 -38 c46 -130 88 -262
113 -350 56 -201 66 -236 71 -270 3 -19 14 -73 24 -120 25 -110 59 -326 67
-415 3 -38 10 -104 15 -145 5 -41 12 -194 16 -340 5 -253 3 -299 -27 -650 -17
-196 -63 -443 -132 -717 -39 -154 -160 -525 -173 -530 -6 -1 -22 21 -38 50
-15 28 -62 111 -105 184 -42 73 -90 156 -107 185 -63 111 -124 218 -198 345
-42 72 -86 149 -98 170 -12 21 -45 79 -74 128 -29 50 -96 167 -150 260 -54 94
-136 234 -182 312 -46 78 -83 151 -83 163 0 11 31 74 69 138 37 64 121 209
186 322 65 113 146 252 179 310 34 58 70 122 81 143 11 20 23 37 27 37 5 0 8
5 8 10 0 11 49 98 274 485 64 110 135 235 159 277 23 43 46 77 50 75 5 -1 17
-27 28 -57z m-6583 -4997 c93 -167 322 -565 332 -578 4 -5 19 -30 32 -55 14
-25 58 -101 98 -170 40 -69 86 -150 103 -180 16 -30 49 -86 72 -125 49 -83 93
-159 116 -200 35 -66 242 -421 251 -432 8 -10 5 -13 -10 -13 -70 0 -533 113
-742 180 -147 48 -473 175 -539 210 -20 11 -105 54 -189 95 -84 41 -210 110
-280 152 -133 80 -363 229 -372 241 -3 4 -31 25 -62 46 -32 21 -65 46 -75 55
-10 9 -34 28 -53 41 -19 13 -39 30 -45 36 -5 7 -39 35 -74 63 -141 112 -479
444 -597 586 -31 39 -64 78 -72 88 -14 16 36 17 1029 17 l1044 0 33 -57z
m5736 45 c-4 -7 -56 -69 -115 -138 -124 -144 -363 -381 -494 -490 -49 -41 -92
-77 -95 -80 -34 -34 -320 -248 -381 -285 -9 -5 -50 -32 -90 -59 -258 -172
-655 -372 -974 -492 -96 -36 -325 -110 -440 -142 -175 -49 -511 -120 -521
-109 -3 2 31 66 75 140 44 74 91 154 104 178 13 24 64 114 114 199 49 85 150
261 225 390 74 129 174 302 222 383 47 82 86 151 86 153 0 3 8 17 19 32 10 15
58 96 107 180 l88 152 1039 0 c828 0 1037 -3 1031 -12z"/>
<path d="M12145 13304 c-38 -53 -118 -161 -177 -241 -60 -80 -108 -151 -108
-158 0 -7 12 -21 28 -30 15 -10 35 -26 45 -36 24 -25 28 -24 55 14 13 17 42
58 64 89 l41 57 41 -34 c61 -49 143 -95 179 -99 105 -11 217 92 217 200 0 66
-18 110 -59 146 -38 33 -246 188 -252 188 -2 0 -35 -43 -74 -96z m191 -130
c56 -48 64 -60 64 -90 0 -27 -8 -42 -32 -65 -18 -16 -39 -29 -48 -29 -16 0
-100 47 -139 78 l-24 19 53 72 c30 39 56 71 58 71 3 0 33 -25 68 -56z"/>
<path d="M3772 13041 l-51 -46 122 -306 123 -306 53 46 52 46 -30 67 -29 66
66 59 c108 94 93 89 162 54 l62 -32 49 42 c27 22 49 45 49 49 0 9 -97 62 -345
190 -77 40 -144 76 -150 80 -5 4 -26 15 -46 23 l-35 14 -52 -46z m212 -178
c45 -26 83 -48 86 -51 6 -5 -91 -91 -102 -92 -5 0 -8 5 -8 11 0 5 -9 29 -19
52 -24 54 -51 118 -51 123 0 9 18 1 94 -43z"/>
<path d="M12655 12786 c-99 -45 -201 -92 -227 -104 -27 -12 -67 -31 -91 -42
-24 -11 -48 -20 -54 -20 -6 0 -16 -7 -23 -15 -11 -13 -8 -21 21 -51 55 -57 61
-58 128 -22 l60 33 76 -75 c41 -41 75 -80 75 -86 0 -7 -11 -35 -25 -62 -14
-28 -25 -56 -25 -64 0 -21 88 -104 99 -93 4 6 43 87 86 180 75 164 154 336
178 383 9 20 5 28 -38 72 -27 28 -52 50 -55 49 -3 0 -86 -37 -185 -83z m105
-108 c-5 -13 -25 -56 -45 -97 l-36 -74 -52 52 c-29 30 -47 55 -41 58 7 2 47
21 90 43 94 46 96 46 84 18z"/>
<path d="M3346 12628 l-155 -163 217 -212 c119 -117 222 -212 227 -213 10 0
314 310 315 321 0 12 -63 79 -76 79 -7 0 -61 -50 -120 -110 l-108 -111 -50 51
-51 50 65 67 c36 38 81 85 100 106 l34 37 -34 35 c-19 19 -37 35 -42 35 -4 0
-52 -46 -107 -102 l-100 -103 -45 44 -45 45 97 96 c140 140 132 124 87 170
-22 22 -42 40 -46 40 -4 0 -77 -73 -163 -162z"/>
<path d="M13048 12459 c-51 -45 -141 -126 -200 -181 -59 -55 -119 -109 -133
-120 -14 -10 -25 -22 -25 -26 1 -4 18 -26 40 -50 27 -31 43 -41 53 -35 15 8
115 97 216 190 51 48 71 61 71 48 0 -2 -8 -28 -19 -57 -10 -29 -31 -96 -46
-148 -15 -52 -36 -121 -46 -153 -11 -31 -19 -63 -19 -70 0 -6 20 -34 45 -60
l45 -48 87 76 c49 42 96 87 106 101 10 13 22 24 25 24 7 0 95 78 199 175 l43
40 -44 48 -43 47 -139 -121 c-76 -67 -142 -127 -146 -133 -15 -22 -8 16 23
117 17 56 44 147 60 201 17 55 32 103 35 108 6 9 -73 108 -87 108 -4 0 -50
-37 -101 -81z"/>
<path d="M2881 12078 l-39 -51 83 -66 c72 -58 122 -98 273 -219 19 -15 50 -42
70 -59 21 -18 44 -33 52 -33 9 0 67 64 130 143 63 78 121 150 129 161 15 17
13 21 -29 58 l-45 40 -20 -25 c-11 -13 -51 -62 -89 -108 -37 -46 -71 -85 -76
-87 -8 -3 -121 83 -215 163 -69 59 -169 135 -178 135 -3 0 -24 -23 -46 -52z"/>
<path d="M13527 12023 c-10 -21 -46 -101 -79 -178 -72 -165 -90 -191 -164
-242 -31 -21 -69 -48 -85 -61 l-28 -23 36 -55 c38 -57 44 -61 65 -41 7 7 51
38 98 70 64 43 94 57 120 57 71 0 380 34 380 42 0 20 -74 118 -89 118 -9 -1
-70 -7 -136 -14 -66 -8 -121 -13 -123 -11 -2 2 79 182 98 217 6 10 10 22 10
28 0 8 -79 130 -84 130 -1 0 -10 -17 -19 -37z"/>
<path d="M2480 11465 l-45 -85 45 -44 c42 -40 127 -130 209 -219 19 -20 32
-39 29 -42 -3 -3 -49 3 -103 15 -54 11 -139 27 -190 35 -51 8 -99 17 -106 20
-9 3 -29 -23 -61 -80 l-46 -85 121 -66 c67 -37 184 -102 260 -146 76 -43 145
-78 152 -78 14 0 65 77 65 98 0 9 -150 102 -165 102 -11 0 -165 93 -161 97 2
3 40 -2 83 -11 43 -9 98 -18 123 -21 24 -3 75 -13 112 -21 37 -9 72 -13 78 -9
6 4 22 24 36 46 l25 40 -40 47 c-22 26 -48 54 -58 63 -10 9 -29 29 -42 45 -14
16 -49 55 -79 87 -31 31 -52 60 -49 63 3 4 58 -23 121 -60 63 -36 119 -66 124
-66 4 0 23 -11 42 -25 19 -14 37 -25 41 -25 8 0 73 110 68 114 -2 1 -42 24
-89 50 -47 26 -92 51 -100 56 -8 5 -49 27 -90 49 -41 21 -115 62 -163 90 -49
28 -92 51 -95 51 -4 0 -27 -38 -52 -85z"/>
<path d="M14065 11168 c-11 -6 -67 -38 -125 -72 -58 -34 -165 -97 -238 -140
-73 -43 -134 -82 -137 -86 -3 -4 25 -59 62 -121 36 -63 84 -144 105 -181 22
-38 43 -68 47 -68 4 0 28 14 54 31 l46 30 -70 115 c-38 63 -69 121 -69 128 0
12 94 71 343 214 43 24 76 47 75 51 -13 27 -64 111 -68 111 -3 0 -14 -6 -25
-12z"/>
<path d="M2061 10648 c-5 -13 -16 -41 -25 -62 -9 -22 -15 -45 -12 -52 2 -6
105 -103 228 -215 123 -111 225 -206 226 -211 2 -4 9 -8 17 -8 12 0 55 86 55
111 0 7 -23 33 -50 58 l-51 46 39 99 39 99 75 -2 75 -2 23 61 c12 33 20 63 18
66 -3 3 -102 9 -219 14 -118 5 -262 12 -322 15 -105 6 -107 6 -116 -17z m336
-124 l22 -4 -26 -60 c-15 -33 -31 -60 -37 -60 -6 1 -45 33 -86 71 l-75 70 90
-6 c50 -3 100 -8 112 -11z"/>
<path d="M14230 10609 c-52 -22 -144 -60 -205 -84 -206 -83 -247 -101 -247
-108 1 -23 49 -127 57 -123 64 28 195 83 255 107 41 17 111 45 155 64 44 18
97 40 117 48 l37 16 -23 58 c-13 32 -30 59 -38 60 -7 1 -56 -16 -108 -38z"/>
<path d="M14418 10385 c-6 -6 -333 -121 -455 -160 -39 -13 -76 -26 -81 -29 -8
-5 19 -111 31 -123 5 -4 318 102 350 119 42 22 11 -14 -59 -68 -43 -32 -82
-63 -88 -69 -10 -10 -129 -102 -148 -115 -4 -3 0 -29 9 -58 l17 -52 215 -1
216 -1 -60 -19 c-33 -10 -69 -23 -80 -28 -11 -5 -69 -26 -130 -47 -60 -21
-111 -38 -112 -38 -1 -1 8 -29 20 -64 17 -47 26 -61 37 -56 17 7 131 47 380
134 96 33 178 64 182 68 8 8 -51 184 -61 178 -5 -4 -389 -10 -415 -7 -4 1 20
22 55 48 35 25 69 52 74 58 6 6 44 37 85 68 41 31 85 64 97 74 l23 18 -30 84
c-17 46 -30 85 -30 87 0 6 -36 5 -42 -1z"/>
<path d="M1891 10177 c-5 -18 -13 -49 -16 -69 -7 -37 -7 -37 37 -48 41 -10
424 -116 530 -146 13 -4 21 8 36 58 16 50 17 65 7 70 -7 4 -55 19 -106 34 -52
14 -166 45 -254 69 -88 24 -174 48 -192 54 -30 9 -33 8 -42 -22z"/>
<path d="M1889 9946 c-47 -16 -72 -43 -108 -113 -25 -47 -31 -72 -32 -133 -2
-64 1 -82 22 -119 31 -55 80 -81 153 -81 48 0 60 4 92 33 21 17 54 56 73 86
20 29 46 69 58 87 47 70 94 79 126 25 22 -38 21 -56 -7 -116 -30 -64 -47 -78
-101 -79 -44 -1 -44 -1 -54 -46 -5 -25 -13 -53 -16 -62 -5 -13 2 -18 37 -23
105 -15 196 51 240 174 30 83 29 175 -2 231 -36 64 -88 92 -165 87 -81 -4
-106 -23 -180 -137 -78 -120 -96 -137 -133 -124 -23 8 -27 16 -30 53 -6 76 30
130 89 137 18 2 34 6 36 8 2 1 10 27 17 57 11 41 11 56 3 61 -18 12 -78 9
-118 -6z"/>
<path d="M14630 9543 c-19 -2 -102 -14 -185 -28 -82 -13 -195 -31 -250 -40
-54 -9 -100 -17 -101 -18 -1 -1 3 -30 9 -64 12 -75 6 -73 173 -44 60 11 132
22 159 25 28 4 104 16 170 27 l121 22 -10 63 c-10 70 -4 65 -86 57z"/>
<path d="M1676 9402 c-3 -5 -8 -33 -11 -63 -3 -30 -8 -64 -10 -75 -4 -16 23
-55 95 -145 55 -68 100 -127 100 -132 0 -4 -10 -5 -22 -2 -13 3 -41 7 -63 10
-22 2 -65 7 -96 11 l-56 6 -6 -53 c-10 -84 -10 -85 26 -87 38 -2 476 -72 553
-87 19 -4 23 1 29 43 15 96 16 91 -23 98 -21 3 -54 10 -76 14 -21 5 -45 6 -52
3 -18 -7 -86 64 -82 85 2 9 61 41 143 77 l140 62 12 74 c6 41 12 79 12 86 1 7
-87 -30 -195 -82 -108 -52 -202 -95 -208 -95 -6 0 -26 23 -44 50 -19 27 -42
59 -53 72 -30 37 -33 41 -68 91 -37 51 -37 51 -45 39z"/>
<path d="M14653 9379 c-18 -5 -34 -13 -36 -17 -3 -4 4 -38 14 -77 10 -38 19
-75 19 -82 0 -6 -24 -16 -52 -23 -29 -6 -100 -22 -158 -35 -58 -13 -139 -31
-180 -40 -41 -10 -80 -20 -86 -24 -8 -4 -7 -23 4 -66 l14 -61 67 12 c36 6 93
19 126 27 33 9 78 19 100 23 22 3 73 15 112 25 40 11 77 18 82 15 4 -3 14 -39
22 -81 7 -41 16 -80 19 -85 3 -5 25 -4 55 4 63 15 65 28 31 162 -14 54 -28
115 -31 134 -3 19 -15 72 -27 118 -22 90 -25 91 -95 71z"/>
<path d="M14775 8780 c-22 -4 -71 -11 -110 -14 -38 -4 -110 -13 -160 -21 -49
-8 -132 -19 -184 -24 -52 -6 -97 -14 -101 -18 -4 -4 0 -62 10 -128 10 -66 23
-167 30 -224 l13 -103 55 6 c31 4 58 8 60 10 2 3 -1 37 -7 78 -6 40 -13 100
-16 133 -3 33 -8 72 -11 86 -5 26 -3 27 63 37 37 5 71 7 74 3 6 -6 30 -165 35
-234 1 -21 5 -41 8 -44 2 -3 28 -2 55 2 41 6 51 11 51 26 0 19 -25 188 -36
241 -5 25 -3 27 43 33 26 4 55 9 64 11 13 4 18 -9 27 -68 6 -40 14 -102 17
-138 10 -111 8 -107 73 -102 31 2 58 5 59 7 2 1 -1 26 -7 56 -5 30 -12 81 -14
114 -8 93 -39 285 -45 284 -3 -1 -24 -5 -46 -9z"/>
<path d="M2130 8719 c-36 -10 -112 -32 -170 -49 -58 -17 -118 -35 -135 -40
-67 -18 -250 -72 -253 -75 -2 -2 -6 -35 -9 -73 l-5 -69 98 -43 c55 -24 140
-62 189 -85 181 -84 306 -138 310 -133 3 3 6 33 7 68 l3 64 -63 25 -64 25 6
109 c3 61 7 111 8 113 2 1 32 11 68 21 l65 19 7 65 c4 35 7 67 5 70 -1 3 -31
-3 -67 -12z m-194 -235 c-3 -26 -6 -58 -6 -71 0 -28 -8 -27 -95 12 -27 13 -60
26 -72 30 -38 11 -26 21 45 39 37 10 78 22 92 26 41 14 43 12 36 -36z"/>
<path d="M14485 8170 c-126 -3 -232 -7 -234 -8 -1 -1 -1 -77 1 -169 4 -178 4
-176 63 -267 22 -33 100 -72 174 -87 50 -9 80 -10 143 0 110 17 165 52 207
130 l31 60 -2 173 -3 173 -75 1 c-41 0 -178 -3 -305 -6z m265 -218 c-6 -104
-22 -135 -83 -163 -61 -27 -170 -26 -221 4 -56 32 -76 76 -76 164 l0 73 183 3
c100 1 187 4 192 5 6 1 8 -30 5 -86z"/>
<path d="M1900 8108 c-55 -28 -83 -81 -111 -212 -27 -128 -52 -156 -109 -126
-60 32 -33 190 32 190 16 0 18 9 18 66 l0 67 -44 -5 c-24 -3 -58 -15 -74 -27
-42 -29 -72 -113 -72 -196 0 -156 93 -257 219 -238 80 13 118 65 151 208 35
148 57 178 111 151 32 -16 49 -52 49 -108 0 -70 -14 -97 -61 -116 l-40 -17 3
-65 4 -65 29 3 c56 6 118 53 148 112 27 51 28 61 25 150 -7 160 -62 235 -179
246 -44 4 -63 1 -99 -18z"/>
<path d="M1757 7360 c-78 -23 -139 -113 -139 -203 0 -136 140 -243 272 -207
56 15 134 90 148 142 31 113 -27 233 -127 267 -39 13 -113 13 -154 1z"/>
<path d="M14459 7351 c-47 -23 -95 -76 -110 -120 -6 -19 -9 -59 -6 -92 17
-187 238 -263 365 -125 69 75 79 158 30 253 -48 90 -184 131 -279 84z"/>
<path d="M2173 6630 c-41 -25 -63 -68 -63 -123 l0 -44 -87 -22 c-173 -45 -184
-46 -199 -26 -8 10 -14 27 -14 38 0 13 -5 17 -16 13 -9 -3 -33 -9 -55 -12 -21
-4 -39 -9 -39 -13 0 -3 7 -31 16 -61 31 -109 65 -236 79 -293 17 -66 51 -136
74 -154 42 -31 120 -23 301 31 25 8 83 24 130 36 145 37 190 52 190 62 0 6 -7
34 -16 64 -18 62 -21 63 -110 35 -32 -10 -106 -31 -164 -46 -58 -15 -135 -37
-172 -48 -37 -11 -74 -17 -83 -14 -18 7 -37 48 -63 137 l-19 65 56 17 c31 10
65 20 76 22 22 5 189 49 250 67 94 27 125 62 125 145 0 112 -107 180 -197 124z
m102 -100 c14 -44 -44 -69 -65 -29 -9 15 -8 24 1 35 18 21 57 18 64 -6z"/>
<path d="M13968 6538 c-34 -9 -38 -15 -57 -71 -12 -33 -19 -62 -18 -64 2 -1
41 2 87 8 106 13 211 3 405 -37 49 -10 195 -73 260 -111 33 -20 92 -62 132
-94 l72 -59 11 38 c26 99 27 97 -31 154 -93 93 -178 143 -347 206 l-97 35
-190 3 c-104 1 -207 -2 -227 -8z"/>
<path d="M13990 6249 c-6 -23 -15 -52 -20 -65 -9 -22 -4 -24 181 -85 l189 -63
1 -71 c1 -38 1 -73 0 -77 0 -4 6 -24 13 -46 l14 -40 -56 18 c-32 10 -112 37
-179 59 -153 51 -199 53 -248 10 -52 -46 -63 -100 -38 -183 5 -18 3 -18 -23 3
-15 12 -31 18 -35 14 -4 -4 -19 -33 -33 -65 l-25 -56 33 -16 c41 -19 64 -45
74 -82 14 -49 6 -61 -42 -61 -74 -2 -151 -53 -176 -118 -19 -49 -15 -218 5
-249 l17 -26 -64 0 c-56 0 -71 -4 -105 -29 -44 -32 -80 -76 -108 -130 -26 -51
-24 -164 2 -216 20 -38 69 -93 76 -84 2 2 18 28 35 57 l32 53 -25 43 c-40 69
-27 129 36 162 42 21 57 18 154 -37 50 -28 115 -64 145 -81 30 -17 87 -50 125
-74 79 -48 70 -51 123 37 l22 38 -72 42 c-40 23 -93 54 -118 69 -25 15 -79 47
-120 71 l-75 43 48 7 c57 9 72 20 98 70 43 86 7 170 -83 193 -34 8 -36 33 -4
42 37 9 59 -9 90 -75 l29 -60 106 -46 c131 -57 135 -61 120 -104 -9 -26 -9
-35 2 -46 13 -12 80 -38 85 -33 1 2 28 62 59 133 103 236 112 275 76 328 -25
38 -43 49 -157 98 -54 23 -104 46 -110 50 -6 5 -31 12 -56 15 -33 5 -48 2 -60
-10 -23 -23 -28 -20 -28 13 0 16 -7 36 -15 44 -20 20 -9 27 24 14 23 -8 39 -7
76 7 42 16 64 42 80 93 1 3 250 -81 326 -110 l67 -25 22 70 22 71 -31 61 c-39
78 -40 96 -2 96 60 0 129 75 131 143 0 40 -24 93 -52 111 -29 19 -106 23 -136
7 -20 -10 -49 -3 -222 53 -109 36 -201 66 -204 66 -3 0 -10 -19 -16 -41z m521
-169 c24 -14 24 -35 -1 -60 -17 -17 -23 -18 -40 -8 -22 14 -25 30 -10 59 12
22 23 24 51 9z m-528 -274 c31 -24 10 -72 -29 -64 -31 6 -40 34 -20 57 22 24
25 25 49 7z m104 -398 c54 -22 107 -49 118 -59 19 -19 19 -20 0 -74 -10 -30
-22 -55 -27 -55 -14 0 -182 71 -215 91 -17 11 -43 39 -57 64 -31 53 -32 59 -6
45 16 -9 24 -7 42 10 12 11 27 20 34 20 7 0 57 -19 111 -42z m-323 -234 c21
-20 20 -27 -4 -49 -20 -18 -21 -18 -41 2 -17 17 -19 24 -10 42 14 25 34 27 55
5z"/>
<path d="M2580 6153 c-8 -2 -21 -6 -28 -9 -8 -2 4 -28 36 -76 84 -123 116
-210 130 -347 4 -35 12 -66 18 -68 6 -2 36 19 67 47 50 45 57 57 70 114 41
182 -74 349 -239 345 -22 0 -46 -3 -54 -6z m154 -124 c43 -34 60 -79 57 -146
-2 -38 -15 -25 -33 32 -10 31 -29 73 -43 95 -28 44 -21 51 19 19z"/>
<path d="M2290 5968 c0 -7 16 -60 36 -118 47 -141 52 -187 25 -222 -19 -24
-73 -48 -106 -48 -6 0 -16 14 -22 30 -8 22 -25 36 -58 51 -74 33 -133 9 -166
-67 -28 -62 -18 -106 38 -162 42 -42 47 -44 91 -39 60 5 277 88 308 118 13 12
28 37 33 55 11 39 -3 178 -24 245 -12 37 32 13 55 -30 5 -10 12 -56 16 -102 4
-58 12 -92 25 -111 24 -34 24 -38 -5 -65 -29 -28 -39 -76 -26 -122 8 -28 6
-36 -8 -47 -9 -7 -20 -14 -25 -14 -4 0 -49 -20 -99 -45 -51 -25 -100 -45 -109
-45 -10 0 -26 11 -37 25 -24 30 -24 30 -77 4 l-42 -21 41 -82 c23 -44 68 -136
101 -204 101 -209 143 -229 307 -146 74 37 94 41 123 20 11 -7 32 -16 47 -20
25 -6 28 -3 40 36 7 24 12 50 11 59 -1 9 13 22 36 32 51 23 59 21 27 -4 -50
-39 -65 -105 -36 -158 6 -12 8 -26 5 -31 -4 -6 -52 -40 -108 -76 -84 -55 -210
-138 -226 -150 -2 -2 14 -27 35 -56 21 -29 39 -54 39 -56 2 -2 307 74 490 122
73 20 85 20 85 1 0 -8 -46 -45 -102 -81 -229 -149 -303 -199 -306 -206 -2 -5
-10 -8 -17 -8 -29 0 -25 -23 11 -75 43 -63 27 -66 178 34 55 37 149 99 207
137 115 74 148 111 156 172 8 59 -38 139 -93 163 -40 18 -41 18 -145 -12 -140
-42 -145 -43 -139 -36 3 2 33 21 67 41 108 63 140 124 108 204 -23 56 -64 89
-122 98 l-46 7 36 19 c20 10 37 23 37 29 0 17 -50 109 -60 109 -5 0 -57 -22
-116 -50 -59 -27 -107 -50 -108 -50 -1 0 0 24 2 53 3 46 0 58 -22 84 -15 18
-42 35 -64 40 l-37 9 89 44 c99 49 126 80 126 143 0 54 -34 114 -75 134 -38
18 -39 20 -25 57 8 21 5 28 -14 43 -18 15 -24 32 -30 86 -4 38 -14 86 -23 108
-22 57 -102 123 -172 143 -70 19 -141 21 -141 4z m-140 -417 c7 -15 6 -23 -6
-35 -18 -19 -20 -19 -45 -6 -19 10 -26 40 -12 53 13 14 53 6 63 -12z m500 -20
c0 -16 -19 -23 -40 -16 -30 10 -24 25 10 25 17 0 30 -4 30 -9z m14 -103 c14
-23 -3 -52 -33 -56 -30 -5 -45 36 -23 61 19 21 41 19 56 -5z m-185 -279 c-17
-33 -6 -124 19 -159 28 -38 28 -42 -7 -63 -37 -22 -74 -22 -93 1 -20 22 -78
138 -78 154 0 11 140 86 163 87 4 1 3 -9 -4 -20z m127 -51 c7 -22 -19 -52 -41
-45 -12 4 -19 33 -11 53 8 22 44 17 52 -8z m348 -254 c9 -8 16 -19 16 -24 0
-14 -30 -40 -46 -40 -23 0 -40 46 -24 65 16 19 34 19 54 -1z"/>
<path d="M2995 5460 c-70 -28 -84 -101 -44 -216 20 -57 36 -81 94 -140 63 -65
75 -73 128 -84 64 -13 136 -5 143 15 6 14 -11 51 -33 73 -7 7 -13 19 -13 27 0
10 -14 12 -58 8 -56 -5 -59 -4 -98 32 -37 35 -38 38 -19 49 47 27 75 64 75
100 0 102 -90 172 -175 136z m85 -101 c14 -26 -4 -51 -34 -47 -21 3 -32 28
-22 54 8 21 44 17 56 -7z"/>
<path d="M13221 4642 c-46 -23 -72 -61 -78 -113 -6 -53 25 -106 74 -129 27
-12 33 -21 34 -50 3 -59 6 -75 19 -99 14 -27 20 -30 -89 41 -80 52 -127 61
-181 33 -89 -46 -105 -188 -26 -236 19 -11 49 -19 78 -19 38 0 54 6 82 30 l34
30 84 -57 c88 -60 190 -132 223 -158 10 -8 22 -15 25 -15 6 0 55 65 73 97 4 6
-11 33 -35 60 -57 66 -126 176 -155 245 -24 59 -31 128 -13 128 13 0 69 -37
203 -132 59 -43 112 -78 116 -78 5 0 12 -6 14 -12 3 -9 14 -2 31 17 27 31 60
85 54 89 -2 1 -28 20 -58 42 -182 134 -275 194 -299 194 -13 0 -27 15 -41 44
-31 65 -99 84 -169 48z m70 -82 c23 -13 25 -58 3 -67 -36 -13 -68 33 -44 62
15 18 16 18 41 5z m-209 -345 c9 -21 9 -29 -4 -41 -34 -34 -84 12 -52 47 23
26 42 24 56 -6z"/>
<path d="M3878 4164 c-24 -17 -38 -36 -42 -58 -16 -84 81 -225 194 -282 64
-32 163 -41 214 -20 71 30 72 34 20 87 -45 46 -48 47 -71 32 -35 -23 -97 -20
-137 8 l-34 23 29 27 c16 15 30 35 30 46 6 72 -12 112 -64 143 -45 28 -95 25
-139 -6z m116 -81 c9 -22 -13 -45 -38 -41 -26 4 -33 38 -11 54 20 15 41 9 49
-13z"/>
<path d="M12792 4067 c-23 -23 -42 -46 -42 -49 0 -8 -9 1 173 -172 81 -76 147
-142 147 -146 0 -5 -15 -8 -32 -8 -18 0 -59 -12 -92 -26 l-58 -26 -104 95
-104 95 -60 0 c-48 0 -64 -4 -83 -22 -44 -43 -57 -71 -57 -123 0 -45 4 -55 35
-85 30 -29 42 -34 85 -34 36 0 58 6 81 23 l31 23 38 -37 c35 -35 37 -40 25
-59 -8 -11 -17 -43 -20 -71 -15 -118 95 -197 208 -150 37 15 80 63 91 102 11
34 -10 93 -44 128 l-31 32 23 6 c61 15 126 16 171 3 l47 -14 30 34 c33 38 40
95 17 126 -17 22 -420 398 -427 398 -3 0 -25 -19 -48 -43z m-151 -359 c10 -18
8 -24 -10 -39 -25 -21 -48 -16 -56 12 -14 44 44 67 66 27z m264 -272 c25 -20
28 -26 16 -40 -17 -20 -25 -20 -45 0 -16 16 -22 64 -8 64 4 0 20 -11 37 -24z"/>
<path d="M3495 4041 c-79 -20 -101 -42 -213 -206 -33 -49 -84 -114 -111 -142
-28 -29 -51 -56 -51 -61 0 -15 92 -93 103 -88 7 4 32 19 57 36 25 16 75 47
113 69 l67 40 33 -35 c26 -29 42 -37 80 -41 43 -5 49 -3 82 30 28 28 35 42 35
76 0 57 -18 90 -62 112 -51 26 -85 24 -154 -11 -32 -16 -60 -28 -62 -26 -8 9
107 116 131 122 66 16 178 -55 192 -123 4 -15 8 -32 10 -38 6 -25 -39 -82
-187 -233 l-160 -163 49 -50 48 -50 177 179 c129 131 179 188 186 213 6 26 13
33 28 31 63 -10 111 -12 121 -5 9 6 7 25 -5 76 l-17 67 -47 -6 c-45 -6 -50 -5
-75 26 -71 84 -142 150 -188 173 -54 28 -133 40 -180 28z m112 -297 c7 -20 -8
-48 -29 -52 -26 -5 -50 26 -38 49 13 23 58 25 67 3z"/>
<path d="M12272 3726 c-23 -23 -42 -51 -42 -62 0 -28 37 -141 66 -203 77 -165
255 -345 424 -431 48 -24 169 -70 185 -70 6 0 32 20 58 45 30 27 42 45 33 45
-9 0 -16 4 -16 8 0 5 -6 9 -12 9 -38 1 -192 90 -282 163 -21 17 -110 108 -159
162 -50 55 -131 193 -167 283 -17 44 -35 83 -38 87 -4 4 -26 -12 -50 -36z"/>
<path d="M3928 3588 l-47 -10 29 -52 c38 -68 38 -76 -6 -76 -51 0 -64 -10
-150 -112 -43 -51 -95 -111 -116 -133 -21 -22 -38 -45 -38 -52 0 -6 15 -22 33
-34 17 -13 36 -29 40 -36 4 -7 14 -13 20 -13 13 0 20 8 152 160 106 123 105
123 161 118 l46 -3 -5 45 c-3 25 -9 53 -12 63 -11 28 34 21 87 -12 57 -36 82
-81 75 -128 -6 -32 -52 -99 -103 -148 -11 -11 -58 -65 -104 -120 -46 -55 -91
-108 -99 -118 -14 -16 -12 -20 15 -43 16 -14 40 -34 52 -45 13 -11 25 -19 27
-17 1 2 42 50 90 106 47 57 94 112 103 121 53 56 120 137 136 168 12 21 19 55
19 86 0 173 -218 325 -405 285z"/>
<path d="M4650 3430 c-55 -11 -87 -27 -120 -58 -32 -31 -39 -52 -17 -52 19 0
151 -65 205 -101 62 -42 127 -104 163 -156 17 -24 34 -43 39 -43 17 0 45 95
44 150 -1 69 -25 122 -84 180 -69 70 -148 97 -230 80z m122 -106 c31 -16 84
-81 74 -91 -3 -4 -16 2 -29 13 -31 28 -104 74 -117 74 -11 0 -13 13 -3 23 7 8
36 1 75 -19z"/>
<path d="M5073 3356 c-44 -20 -73 -70 -73 -125 0 -37 5 -49 36 -77 29 -28 43
-34 79 -34 35 0 48 5 64 26 28 36 26 66 -5 104 -47 55 -17 45 39 -14 49 -50
59 -56 95 -56 32 0 49 7 77 31 19 17 35 35 35 39 0 7 -55 45 -82 58 -4 2 -15
-4 -24 -13 -15 -14 -18 -14 -38 0 -100 73 -146 86 -203 61z m57 -141 c15 -18
5 -35 -20 -35 -23 0 -32 13 -24 34 8 20 28 21 44 1z"/>
<path d="M4414 3189 c-67 -16 -109 -66 -181 -218 -35 -74 -79 -155 -97 -180
-18 -25 -36 -51 -39 -58 -4 -6 14 -26 45 -48 l52 -38 60 23 c62 23 90 32 231
77 44 13 88 32 99 41 22 21 46 65 46 87 0 32 -30 80 -65 104 -82 56 -199 -19
-180 -115 5 -28 3 -34 -12 -35 -10 0 -26 -2 -35 -4 -11 -2 -18 3 -18 11 0 31
74 168 111 205 33 33 45 39 83 39 86 0 187 -99 172 -167 -4 -16 -19 -46 -34
-69 -81 -121 -152 -225 -190 -276 -46 -62 -51 -84 -24 -92 9 -3 30 -17 46 -31
16 -14 33 -24 38 -23 4 2 46 57 93 123 46 66 89 125 95 132 5 6 31 45 57 85
45 70 47 76 47 143 -1 51 -7 81 -22 111 -25 50 -106 125 -166 153 -51 25 -153
34 -212 20z m116 -323 c-16 -20 -34 -20 -50 -1 -10 13 -9 19 5 36 19 20 19 20
39 0 16 -17 17 -23 6 -35z"/>
<path d="M11223 3152 c-52 -34 -53 -36 -47 -73 9 -53 -1 -84 -41 -126 -30 -31
-35 -34 -35 -17 0 11 -13 32 -28 47 -22 22 -38 27 -76 27 -66 0 -104 -22 -128
-77 -19 -43 -19 -47 -3 -88 31 -83 115 -95 243 -35 64 30 140 99 168 151 26
50 35 115 23 169 -6 27 -14 51 -17 53 -4 2 -31 -12 -59 -31z m-215 -239 c13
-26 4 -43 -24 -43 -26 0 -40 20 -30 45 8 21 43 19 54 -2z"/>
<path d="M11704 3071 c-68 -25 -100 -46 -156 -105 -53 -56 -78 -116 -78 -188
0 -77 23 -115 144 -238 62 -63 123 -131 136 -150 42 -60 46 -63 77 -46 79 43
75 31 79 257 4 188 2 207 -16 236 -13 21 -31 35 -57 42 -97 27 -186 -53 -161
-146 9 -36 64 -83 96 -83 19 0 22 -6 22 -46 l0 -46 -70 62 c-91 81 -124 135
-118 194 9 89 96 157 185 143 44 -7 85 -49 165 -169 29 -43 56 -78 60 -78 4 0
8 -4 8 -9 0 -14 93 -140 103 -141 5 0 30 15 55 32 26 18 49 34 51 35 4 3 -72
117 -144 217 -145 200 -155 211 -224 234 -48 17 -98 14 -157 -7z m116 -308 c0
-23 -43 -34 -57 -15 -19 24 -16 42 10 51 23 10 47 -9 47 -36z"/>
<path d="M4905 2825 c-16 -7 -43 -24 -59 -37 l-29 -25 58 -35 57 -35 -45 -11
c-71 -18 -86 -35 -170 -192 -54 -100 -54 -146 1 -200 45 -45 95 -58 153 -41
88 27 107 156 33 217 -26 21 -26 22 -9 57 22 47 43 54 72 24 l24 -24 -10 -139
c-6 -76 -11 -164 -11 -194 l0 -55 55 -29 c31 -16 57 -27 58 -25 1 2 12 18 25
36 12 18 22 35 22 39 0 4 22 43 49 88 120 200 151 256 163 294 12 40 12 40 70
44 72 5 85 16 65 55 -9 15 -22 43 -31 61 -8 17 -17 32 -20 32 -3 0 -20 -9 -38
-20 -18 -11 -38 -20 -44 -20 -7 0 -44 25 -83 55 -102 80 -139 95 -241 94 -51
0 -97 -5 -115 -14z m175 -102 c19 -3 52 -24 76 -48 58 -55 59 -87 3 -192 -23
-43 -42 -79 -44 -81 -1 -1 0 31 3 71 3 55 0 81 -12 105 -19 37 -67 75 -119 93
-41 14 -43 28 -6 46 27 14 52 16 99 6z m-236 -329 c19 -18 19 -20 6 -45 -12
-21 -40 -25 -58 -7 -15 15 -15 35 1 53 16 19 32 19 51 -1z"/>
<path d="M11181 2744 c-130 -36 -232 -152 -247 -280 -7 -56 -7 -57 17 -51 13
3 44 9 68 13 41 7 44 6 37 -12 -20 -51 -18 -82 10 -136 16 -29 33 -57 37 -63
17 -22 117 -198 117 -206 0 -5 2 -9 6 -9 5 0 114 59 122 66 2 1 -32 63 -76
136 -43 73 -87 148 -96 167 -19 36 -15 74 11 104 22 24 12 30 -57 35 l-59 4
15 29 c8 16 34 43 57 60 36 27 49 30 89 26 26 -2 54 -10 62 -16 8 -7 36 -49
62 -94 26 -45 78 -133 116 -195 37 -63 68 -118 68 -123 0 -5 3 -9 6 -9 11 0
124 64 124 70 0 3 -16 29 -35 59 -19 29 -35 55 -35 57 0 3 -17 33 -38 67 -21
34 -64 105 -95 157 -59 99 -89 129 -146 148 -43 15 -72 14 -140 -4z"/>
<path d="M10112 2657 c-18 -5 -46 -25 -62 -43 -40 -46 -47 -92 -24 -157 16
-44 26 -55 64 -74 55 -29 92 -29 148 -2 116 57 99 244 -26 279 -44 12 -56 11
-100 -3z m90 -104 c34 -30 21 -77 -25 -88 -53 -14 -87 46 -50 87 20 22 51 23
75 1z"/>
<path d="M5470 2573 c-33 -13 -61 -49 -90 -119 -34 -82 -38 -125 -13 -149 14
-14 14 -18 2 -26 -8 -5 -19 -9 -25 -9 -6 0 -18 -8 -27 -18 -23 -25 -118 -245
-109 -252 4 -4 36 -19 72 -34 36 -15 83 -36 105 -46 130 -58 167 -70 219 -70
86 0 91 8 281 448 25 57 45 105 45 108 0 5 -108 54 -120 54 -4 0 -24 -42 -45
-92 -82 -200 -172 -387 -188 -394 -15 -6 -132 37 -178 65 l-26 16 28 63 c25
55 31 62 56 62 15 0 47 -9 70 -19 l41 -19 21 48 c12 27 21 50 21 53 0 2 -27
16 -60 31 -61 28 -82 54 -35 42 37 -9 98 10 125 39 27 29 41 107 26 140 -5 11
-25 33 -44 49 -26 23 -45 30 -85 32 -29 2 -59 1 -67 -3z m104 -141 c-24 -38
-83 -16 -69 27 8 27 36 31 60 9 15 -14 17 -22 9 -36z"/>
<path d="M8875 2491 c-45 -7 -43 -3 -31 -103 9 -75 5 -72 94 -61 42 5 51 9 48
22 -3 9 -6 34 -7 56 0 22 -3 52 -6 68 -5 29 -14 31 -98 18z"/>
<path d="M10635 2480 c-102 -33 -178 -115 -190 -206 -6 -48 -11 -52 -39 -25
-29 28 -116 61 -159 61 -78 0 -210 -55 -259 -107 -14 -15 -36 -46 -48 -67 -23
-42 -40 -146 -23 -146 5 0 37 9 71 21 55 19 62 24 62 47 0 112 190 175 262 87
9 -11 19 -42 23 -70 3 -27 9 -67 12 -87 7 -46 -9 -51 -27 -8 -7 17 -28 44 -47
60 -53 47 -145 41 -196 -11 -63 -66 -41 -169 45 -203 40 -17 90 -14 113 5 16
12 30 -1 68 -67 20 -33 44 -71 55 -83 l18 -24 71 23 71 22 -9 30 c-8 28 -21
162 -34 354 l-5 80 50 24 c43 20 50 27 50 52 0 88 84 157 149 123 47 -24 67
-58 157 -262 51 -115 95 -203 102 -203 10 0 106 36 120 45 1 1 -13 33 -31 71
-18 38 -62 136 -98 218 -77 177 -115 228 -192 251 -63 19 -68 18 -142 -5z
m-431 -509 c9 -10 14 -25 10 -35 -7 -18 -47 -32 -63 -21 -17 10 -13 53 7 64
23 14 27 14 46 -8z"/>
<path d="M7335 2331 c-84 -22 -161 -109 -164 -185 -1 -17 5 -18 88 -12 143 12
256 -10 420 -81 12 -5 13 4 8 49 -9 93 -52 156 -140 207 -43 24 -159 36 -212
22z m143 -91 c50 -23 57 -46 11 -36 -17 3 -63 6 -101 6 -74 0 -82 11 -24 36
42 18 63 17 114 -6z"/>
<path d="M6120 2321 c-71 -23 -160 -93 -160 -126 0 -7 27 -21 60 -33 l59 -20
35 33 c19 18 47 35 63 38 51 10 112 -29 128 -81 6 -19 -72 -285 -131 -450 -9
-24 -15 -45 -13 -47 12 -11 124 -44 130 -37 4 4 10 18 13 32 2 14 34 115 71
225 61 181 67 206 63 266 -3 61 -6 68 -47 111 -67 72 -195 114 -271 89z"/>
<path d="M8580 2293 c-73 -12 -156 -114 -167 -205 -7 -54 -3 -56 55 -32 100
42 263 54 392 30 41 -8 76 -13 78 -12 1 2 -2 22 -7 45 -17 78 -76 141 -160
169 -32 11 -136 14 -191 5z m161 -94 c22 -13 18 -14 -51 -20 -41 -3 -87 -9
-102 -14 -39 -10 -36 10 5 35 36 23 107 22 148 -1z"/>
<path d="M6575 2175 c-60 -28 -69 -41 -73 -108 -4 -59 -2 -63 30 -94 18 -17
42 -33 53 -35 15 -3 19 -10 17 -33 -5 -65 -10 -72 -49 -80 -103 -18 -153 -69
-153 -155 0 -85 65 -144 157 -144 68 0 101 24 120 87 7 26 18 47 23 47 16 0
78 -89 96 -138 23 -62 33 -72 81 -78 67 -8 88 19 123 151 16 61 31 124 34 140
3 17 12 57 20 90 36 144 57 238 54 240 -6 5 -112 35 -125 35 -7 0 -13 -8 -13
-18 0 -10 -13 -74 -30 -142 -16 -69 -37 -158 -47 -197 -9 -40 -21 -73 -25 -73
-5 0 -25 17 -46 38 -20 20 -52 48 -69 62 -31 24 -32 27 -23 61 6 20 19 78 30
129 26 122 18 156 -47 199 -51 34 -90 38 -138 16z m93 -111 c2 -11 -5 -28 -16
-37 -16 -15 -20 -15 -40 -1 -24 17 -29 49 -9 58 27 11 62 1 65 -20z m-113
-381 c-9 -50 -18 -58 -38 -35 -16 18 -16 20 4 45 29 38 43 34 34 -10z"/>
<path d="M9284 2066 c-50 -22 -74 -61 -74 -120 0 -80 46 -126 128 -126 l38 0
13 -63 c7 -34 14 -74 15 -87 2 -14 7 -49 11 -77 11 -74 -8 -70 -80 16 -48 58
-158 159 -203 185 -8 5 -32 -7 -63 -29 -28 -20 -54 -34 -57 -30 -4 3 -11 20
-17 37 -5 17 -19 36 -30 42 -11 6 -22 12 -24 14 -3 1 10 17 27 35 35 36 52 81
52 136 l0 34 -46 -7 c-26 -3 -58 -6 -72 -6 -21 0 -24 -4 -19 -26 7 -40 -10
-91 -40 -114 -33 -26 -41 -25 -53 4 -13 36 -66 92 -99 106 -30 12 -71 1 -71
-19 0 -18 -31 -20 -64 -4 -51 24 -114 11 -175 -38 -61 -47 -73 -68 -74 -125 0
-55 14 -83 58 -111 41 -27 91 -29 137 -7 52 25 71 58 69 122 -1 53 0 54 18 38
16 -15 19 -15 31 -1 7 8 19 15 26 15 27 0 14 -48 -27 -99 l-41 -51 7 -128 c9
-153 9 -152 -94 -161 -10 -1 -12 -13 -9 -51 3 -28 8 -53 11 -56 8 -9 395 25
439 38 25 7 46 24 64 50 l27 38 -7 142 -6 141 57 -48 c93 -78 140 -125 201
-202 52 -66 60 -73 93 -73 48 0 131 26 162 50 45 35 48 73 21 222 -46 250 -65
333 -80 356 -31 47 -117 65 -180 38z m81 -92 c19 -20 16 -43 -7 -58 -38 -23
-78 35 -42 61 23 17 29 16 49 -3z m-894 -155 c9 -18 7 -25 -9 -41 -16 -16 -23
-18 -41 -9 -23 13 -28 40 -9 59 19 19 46 14 59 -9z m354 -63 c36 -9 43 -30 51
-163 8 -140 8 -140 -91 -150 l-53 -6 -6 49 c-3 27 -8 85 -11 129 -6 75 -5 83
19 118 14 21 34 52 43 70 l18 32 3 -37 c2 -29 8 -37 27 -42z"/>
<path d="M7275 2020 c-71 -23 -128 -67 -156 -121 -22 -45 -23 -44 62 -53 56
-6 57 -5 83 29 43 55 120 69 192 35 69 -34 76 -52 68 -187 l-7 -116 -14 53
c-35 139 -68 170 -184 176 -74 3 -138 -20 -164 -60 -15 -23 -45 -211 -45 -281
0 -164 276 -167 282 -3 1 19 -4 43 -10 55 -17 31 -70 73 -93 73 -25 0 -33 21
-25 65 6 32 10 35 41 35 42 0 41 1 119 -213 63 -171 54 -160 149 -172 l47 -6
0 45 c0 25 9 107 20 183 12 76 22 183 23 239 2 98 1 101 -28 136 -38 45 -105
83 -173 97 -73 15 -117 13 -187 -9z m3 -492 c15 -15 16 -55 1 -63 -5 -4 -21
-4 -35 -1 -29 8 -34 49 -6 65 22 13 26 13 40 -1z"/>
<path d="M8242 2012 c-20 -45 -46 -52 -143 -36 -144 23 -254 -8 -329 -94 -35
-39 -58 -88 -46 -99 3 -3 34 -8 70 -10 52 -5 66 -3 66 8 1 18 29 51 63 74 37
24 121 24 165 1 47 -24 62 -68 62 -173 l-1 -88 -33 71 c-42 90 -81 117 -166
116 -65 -1 -120 -24 -160 -67 -24 -25 -25 -33 -29 -168 -2 -118 0 -147 14
-173 22 -41 64 -64 118 -64 97 0 142 40 142 127 0 46 -4 57 -31 84 -20 19 -45
33 -65 35 -45 5 -52 15 -44 63 8 46 33 61 68 38 13 -8 50 -76 91 -165 39 -82
75 -156 80 -164 7 -9 36 -17 73 -20 l62 -6 5 52 c10 86 12 480 2 498 -6 14 -2
20 16 27 13 5 40 26 60 47 l37 38 -62 38 c-34 21 -64 38 -67 38 -3 0 -11 -13
-18 -28z m-307 -577 c0 -27 -3 -30 -30 -30 -27 0 -30 4 -33 33 -3 32 -2 33 30
30 29 -3 33 -6 33 -33z"/>
</g>
</svg>
